<svg width="300" height="210" viewBox="0 0 300 210" fill="none" xmlns="http://www.w3.org/2000/svg">
<rect width="300" height="209.615" fill="white"/>
<rect x="64" y="30" width="172" height="15" fill="#888888"/>
<rect x="64.25" y="45.25" width="171.5" height="134.5" stroke="#BEBEBE" stroke-width="0.5"/>
<rect width="82" height="103" transform="translate(137 61)" fill="#C4C4C4"/>
<path d="M159.73 113.82V120.5H157.48V103.438H163.773C165.641 103.438 167.102 103.914 168.156 104.867C169.219 105.82 169.75 107.082 169.75 108.652C169.75 110.309 169.23 111.586 168.191 112.484C167.16 113.375 165.68 113.82 163.75 113.82H159.73ZM159.73 111.98H163.773C164.977 111.98 165.898 111.699 166.539 111.137C167.18 110.566 167.5 109.746 167.5 108.676C167.5 107.66 167.18 106.848 166.539 106.238C165.898 105.629 165.02 105.312 163.902 105.289H159.73V111.98ZM172.621 120.5V103.438H177.438C178.922 103.438 180.234 103.766 181.375 104.422C182.516 105.078 183.395 106.012 184.012 107.223C184.637 108.434 184.953 109.824 184.961 111.395V112.484C184.961 114.094 184.648 115.504 184.023 116.715C183.406 117.926 182.52 118.855 181.363 119.504C180.215 120.152 178.875 120.484 177.344 120.5H172.621ZM174.871 105.289V118.66H177.238C178.973 118.66 180.32 118.121 181.281 117.043C182.25 115.965 182.734 114.43 182.734 112.438V111.441C182.734 109.504 182.277 108 181.363 106.93C180.457 105.852 179.168 105.305 177.496 105.289H174.871ZM197.781 112.965H190.621V120.5H188.371V103.438H198.941V105.289H190.621V111.125H197.781V112.965Z" fill="#888888"/>
<rect x="80.125" y="61.125" width="37.75" height="102.75" stroke="#BEBEBE" stroke-width="0.25"/>
<mask id="mask0" mask-type="alpha" maskUnits="userSpaceOnUse" x="80" y="61" width="38" height="103">
<rect x="80.25" y="61.25" width="37.5" height="102.5" fill="#EB9C9C" stroke="#BEBEBE" stroke-width="0.5"/>
</mask>
<g mask="url(#mask0)">
<rect x="88.0005" y="53" width="22.1194" height="32.7727" fill="#D8D8D8"/>
<rect x="88" y="96.3069" width="22.1194" height="32.7727" fill="#D8D8D8"/>
<rect x="88" y="139.614" width="22.1194" height="32.7727" fill="#D8D8D8"/>
</g>
</svg>
