<svg width="300" height="210" viewBox="0 0 300 210" fill="none" xmlns="http://www.w3.org/2000/svg">
<rect width="300" height="209.615" fill="white"/>
<rect x="64" y="76" width="171" height="54" fill="#E2E2E2"/>
<path d="M135.654 92.1836H127.428V115H124.07V92.1836H115.861V89.4062H135.654V92.1836ZM142.475 115H139.223V95.9805H142.475V115ZM138.959 90.9355C138.959 90.4082 139.117 89.9629 139.434 89.5996C139.762 89.2363 140.242 89.0547 140.875 89.0547C141.508 89.0547 141.988 89.2363 142.316 89.5996C142.645 89.9629 142.809 90.4082 142.809 90.9355C142.809 91.4629 142.645 91.9023 142.316 92.2539C141.988 92.6055 141.508 92.7812 140.875 92.7812C140.242 92.7812 139.762 92.6055 139.434 92.2539C139.117 91.9023 138.959 91.4629 138.959 90.9355ZM152.107 91.375V95.9805H155.658V98.4941H152.107V110.289C152.107 111.051 152.266 111.625 152.582 112.012C152.898 112.387 153.438 112.574 154.199 112.574C154.574 112.574 155.09 112.504 155.746 112.363V115C154.891 115.234 154.059 115.352 153.25 115.352C151.797 115.352 150.701 114.912 149.963 114.033C149.225 113.154 148.855 111.906 148.855 110.289V98.4941H145.393V95.9805H148.855V91.375H152.107ZM163.006 115H159.754V88H163.006V115ZM176.119 115.352C173.541 115.352 171.443 114.508 169.826 112.82C168.209 111.121 167.4 108.854 167.4 106.018V105.42C167.4 103.533 167.758 101.852 168.473 100.375C169.199 98.8867 170.207 97.7266 171.496 96.8945C172.797 96.0508 174.203 95.6289 175.715 95.6289C178.188 95.6289 180.109 96.4434 181.48 98.0723C182.852 99.7012 183.537 102.033 183.537 105.068V106.422H170.652C170.699 108.297 171.244 109.814 172.287 110.975C173.342 112.123 174.678 112.697 176.295 112.697C177.443 112.697 178.416 112.463 179.213 111.994C180.01 111.525 180.707 110.904 181.305 110.131L183.291 111.678C181.697 114.127 179.307 115.352 176.119 115.352ZM175.715 98.3008C174.402 98.3008 173.301 98.7812 172.41 99.7422C171.52 100.691 170.969 102.027 170.758 103.75H180.285V103.504C180.191 101.852 179.746 100.574 178.949 99.6719C178.152 98.7578 177.074 98.3008 175.715 98.3008Z" fill="#A3A3A3"/>
</svg>
