<svg width="300" height="210" viewBox="0 0 300 210" fill="none" xmlns="http://www.w3.org/2000/svg">
<rect width="300" height="209.615" fill="white"/>
<path d="M93.7266 121H89.7422V104.875H71.6953V121H67.7109V86.7344H71.6953V101.312H89.7422V86.7344H93.7266V121ZM113.414 121.469C109.617 121.469 106.617 120.312 104.414 118C102.227 115.688 101.133 112.477 101.133 108.367C101.133 104.227 102.148 100.938 104.18 98.5C106.227 96.0625 108.969 94.8438 112.406 94.8438C115.625 94.8438 118.172 95.9062 120.047 98.0312C121.922 100.141 122.859 102.93 122.859 106.398V108.859H105.164C105.242 111.875 106 114.164 107.438 115.727C108.891 117.289 110.93 118.07 113.555 118.07C116.32 118.07 119.055 117.492 121.758 116.336V119.805C120.383 120.398 119.078 120.82 117.844 121.07C116.625 121.336 115.148 121.469 113.414 121.469ZM112.359 98.1016C110.297 98.1016 108.648 98.7734 107.414 100.117C106.195 101.461 105.477 103.32 105.258 105.695H118.688C118.688 103.242 118.141 101.367 117.047 100.07C115.953 98.7578 114.391 98.1016 112.359 98.1016ZM145.312 121L144.539 117.344H144.352C143.07 118.953 141.789 120.047 140.508 120.625C139.242 121.188 137.656 121.469 135.75 121.469C133.203 121.469 131.203 120.812 129.75 119.5C128.312 118.188 127.594 116.32 127.594 113.898C127.594 108.711 131.742 105.992 140.039 105.742L144.398 105.602V104.008C144.398 101.992 143.961 100.508 143.086 99.5547C142.227 98.5859 140.844 98.1016 138.938 98.1016C136.797 98.1016 134.375 98.7578 131.672 100.07L130.477 97.0938C131.742 96.4062 133.125 95.8672 134.625 95.4766C136.141 95.0859 137.656 94.8906 139.172 94.8906C142.234 94.8906 144.5 95.5703 145.969 96.9297C147.453 98.2891 148.195 100.469 148.195 103.469V121H145.312ZM136.523 118.258C138.945 118.258 140.844 117.594 142.219 116.266C143.609 114.938 144.305 113.078 144.305 110.688V108.367L140.414 108.531C137.32 108.641 135.086 109.125 133.711 109.984C132.352 110.828 131.672 112.148 131.672 113.945C131.672 115.352 132.094 116.422 132.938 117.156C133.797 117.891 134.992 118.258 136.523 118.258ZM173.719 117.555H173.508C171.711 120.164 169.023 121.469 165.445 121.469C162.086 121.469 159.469 120.32 157.594 118.023C155.734 115.727 154.805 112.461 154.805 108.227C154.805 103.992 155.742 100.703 157.617 98.3594C159.492 96.0156 162.102 94.8438 165.445 94.8438C168.93 94.8438 171.602 96.1094 173.461 98.6406H173.766L173.602 96.7891L173.508 94.9844V84.5312H177.398V121H174.234L173.719 117.555ZM165.938 118.211C168.594 118.211 170.516 117.492 171.703 116.055C172.906 114.602 173.508 112.266 173.508 109.047V108.227C173.508 104.586 172.898 101.992 171.68 100.445C170.477 98.8828 168.547 98.1016 165.891 98.1016C163.609 98.1016 161.859 98.9922 160.641 100.773C159.438 102.539 158.836 105.039 158.836 108.273C158.836 111.555 159.438 114.031 160.641 115.703C161.844 117.375 163.609 118.211 165.938 118.211ZM196.523 121.469C192.727 121.469 189.727 120.312 187.523 118C185.336 115.688 184.242 112.477 184.242 108.367C184.242 104.227 185.258 100.938 187.289 98.5C189.336 96.0625 192.078 94.8438 195.516 94.8438C198.734 94.8438 201.281 95.9062 203.156 98.0312C205.031 100.141 205.969 102.93 205.969 106.398V108.859H188.273C188.352 111.875 189.109 114.164 190.547 115.727C192 117.289 194.039 118.07 196.664 118.07C199.43 118.07 202.164 117.492 204.867 116.336V119.805C203.492 120.398 202.188 120.82 200.953 121.07C199.734 121.336 198.258 121.469 196.523 121.469ZM195.469 98.1016C193.406 98.1016 191.758 98.7734 190.523 100.117C189.305 101.461 188.586 103.32 188.367 105.695H201.797C201.797 103.242 201.25 101.367 200.156 100.07C199.062 98.7578 197.5 98.1016 195.469 98.1016ZM224.344 94.8438C225.484 94.8438 226.508 94.9375 227.414 95.125L226.875 98.7344C225.812 98.5 224.875 98.3828 224.062 98.3828C221.984 98.3828 220.203 99.2266 218.719 100.914C217.25 102.602 216.516 104.703 216.516 107.219V121H212.625V95.3125H215.836L216.281 100.07H216.469C217.422 98.3984 218.57 97.1094 219.914 96.2031C221.258 95.2969 222.734 94.8438 224.344 94.8438Z" fill="black" fill-opacity="0.8"/>
</svg>
