<svg width="300" height="210" viewBox="0 0 300 210" fill="none" xmlns="http://www.w3.org/2000/svg">
<rect width="300" height="209.615" fill="white"/>
<rect x="64" y="48" width="172" height="93" fill="#C4C4C4" fill-opacity="0.6"/>
<path d="M137.66 155.519C137.563 156.346 137.257 156.985 136.742 157.436C136.23 157.884 135.548 158.107 134.695 158.107C133.771 158.107 133.03 157.776 132.472 157.114C131.917 156.451 131.639 155.565 131.639 154.455V153.703C131.639 152.976 131.768 152.337 132.026 151.786C132.287 151.234 132.656 150.812 133.132 150.518C133.609 150.221 134.16 150.072 134.787 150.072C135.617 150.072 136.283 150.305 136.785 150.771C137.286 151.232 137.578 151.873 137.66 152.693H136.624C136.534 152.07 136.339 151.619 136.038 151.34C135.741 151.061 135.324 150.921 134.787 150.921C134.128 150.921 133.61 151.164 133.234 151.651C132.862 152.138 132.676 152.831 132.676 153.73V154.487C132.676 155.336 132.853 156.011 133.208 156.512C133.562 157.014 134.058 157.264 134.695 157.264C135.268 157.264 135.707 157.135 136.011 156.877C136.319 156.616 136.523 156.163 136.624 155.519H137.66ZM142.505 158C142.448 157.885 142.401 157.681 142.365 157.388C141.903 157.868 141.352 158.107 140.711 158.107C140.138 158.107 139.667 157.946 139.298 157.624C138.933 157.298 138.75 156.886 138.75 156.389C138.75 155.784 138.98 155.314 139.438 154.981C139.9 154.645 140.548 154.477 141.382 154.477H142.349V154.02C142.349 153.673 142.245 153.397 142.038 153.193C141.83 152.985 141.524 152.881 141.119 152.881C140.765 152.881 140.467 152.971 140.228 153.15C139.988 153.329 139.868 153.546 139.868 153.8H138.869C138.869 153.51 138.971 153.23 139.175 152.962C139.382 152.69 139.662 152.475 140.013 152.317C140.367 152.16 140.756 152.081 141.178 152.081C141.848 152.081 142.372 152.249 142.752 152.586C143.132 152.919 143.328 153.379 143.343 153.966V156.641C143.343 157.175 143.411 157.599 143.547 157.914V158H142.505ZM140.856 157.243C141.167 157.243 141.463 157.162 141.742 157.001C142.021 156.84 142.224 156.63 142.349 156.373V155.18H141.57C140.353 155.18 139.744 155.536 139.744 156.249C139.744 156.561 139.848 156.804 140.056 156.979C140.263 157.155 140.53 157.243 140.856 157.243ZM149.81 155.159C149.81 156.043 149.607 156.756 149.203 157.296C148.798 157.837 148.25 158.107 147.559 158.107C146.854 158.107 146.299 157.884 145.894 157.436V160.234H144.9V152.188H145.808L145.856 152.833C146.261 152.332 146.823 152.081 147.543 152.081C148.241 152.081 148.793 152.344 149.197 152.871C149.605 153.397 149.81 154.129 149.81 155.067V155.159ZM148.816 155.046C148.816 154.391 148.676 153.873 148.397 153.494C148.118 153.114 147.735 152.924 147.248 152.924C146.646 152.924 146.195 153.191 145.894 153.725V156.501C146.191 157.031 146.646 157.296 147.258 157.296C147.735 157.296 148.112 157.108 148.392 156.732C148.674 156.353 148.816 155.791 148.816 155.046ZM152.425 150.781V152.188H153.51V152.957H152.425V156.561C152.425 156.793 152.474 156.969 152.57 157.087C152.667 157.201 152.832 157.259 153.064 157.259C153.179 157.259 153.337 157.237 153.537 157.194V158C153.276 158.072 153.021 158.107 152.774 158.107C152.33 158.107 151.996 157.973 151.77 157.705C151.544 157.436 151.432 157.055 151.432 156.561V152.957H150.374V152.188H151.432V150.781H152.425ZM155.755 158H154.762V152.188H155.755V158ZM154.681 150.647C154.681 150.486 154.729 150.35 154.826 150.239C154.926 150.128 155.073 150.072 155.267 150.072C155.46 150.072 155.607 150.128 155.707 150.239C155.807 150.35 155.857 150.486 155.857 150.647C155.857 150.808 155.807 150.942 155.707 151.05C155.607 151.157 155.46 151.211 155.267 151.211C155.073 151.211 154.926 151.157 154.826 151.05C154.729 150.942 154.681 150.808 154.681 150.647ZM157.087 155.041C157.087 154.471 157.198 153.959 157.42 153.504C157.646 153.05 157.958 152.699 158.355 152.452C158.756 152.205 159.213 152.081 159.725 152.081C160.516 152.081 161.155 152.355 161.642 152.903C162.133 153.451 162.378 154.179 162.378 155.089V155.159C162.378 155.724 162.269 156.233 162.05 156.684C161.835 157.132 161.526 157.481 161.121 157.731C160.72 157.982 160.258 158.107 159.735 158.107C158.948 158.107 158.308 157.833 157.818 157.286C157.331 156.738 157.087 156.013 157.087 155.11V155.041ZM158.086 155.159C158.086 155.803 158.235 156.321 158.532 156.711C158.833 157.101 159.234 157.296 159.735 157.296C160.24 157.296 160.641 157.099 160.938 156.706C161.236 156.308 161.384 155.753 161.384 155.041C161.384 154.403 161.232 153.888 160.928 153.494C160.627 153.096 160.226 152.897 159.725 152.897C159.234 152.897 158.838 153.093 158.538 153.483C158.237 153.873 158.086 154.432 158.086 155.159ZM164.564 152.188L164.596 152.919C165.04 152.36 165.62 152.081 166.336 152.081C167.565 152.081 168.184 152.774 168.195 154.16V158H167.201V154.154C167.198 153.735 167.101 153.426 166.911 153.225C166.725 153.025 166.433 152.924 166.036 152.924C165.713 152.924 165.431 153.01 165.187 153.182C164.944 153.354 164.754 153.58 164.618 153.859V158H163.624V152.188H164.564Z" fill="#888888"/>
<path d="M121.395 104H119.145V86.9375H121.395V104ZM127.219 91.3203L127.277 92.7266C128.207 91.6328 129.461 91.0859 131.039 91.0859C132.812 91.0859 134.02 91.7656 134.66 93.125C135.082 92.5156 135.629 92.0234 136.301 91.6484C136.98 91.2734 137.781 91.0859 138.703 91.0859C141.484 91.0859 142.898 92.5586 142.945 95.5039V104H140.777V95.6328C140.777 94.7266 140.57 94.0508 140.156 93.6055C139.742 93.1523 139.047 92.9258 138.07 92.9258C137.266 92.9258 136.598 93.168 136.066 93.6523C135.535 94.1289 135.227 94.7734 135.141 95.5859V104H132.961V95.6914C132.961 93.8477 132.059 92.9258 130.254 92.9258C128.832 92.9258 127.859 93.5312 127.336 94.7422V104H125.168V91.3203H127.219ZM154.055 104C153.93 103.75 153.828 103.305 153.75 102.664C152.742 103.711 151.539 104.234 150.141 104.234C148.891 104.234 147.863 103.883 147.059 103.18C146.262 102.469 145.863 101.57 145.863 100.484C145.863 99.1641 146.363 98.1406 147.363 97.4141C148.371 96.6797 149.785 96.3125 151.605 96.3125H153.715V95.3164C153.715 94.5586 153.488 93.957 153.035 93.5117C152.582 93.0586 151.914 92.832 151.031 92.832C150.258 92.832 149.609 93.0273 149.086 93.418C148.562 93.8086 148.301 94.2812 148.301 94.8359H146.121C146.121 94.2031 146.344 93.5938 146.789 93.0078C147.242 92.4141 147.852 91.9453 148.617 91.6016C149.391 91.2578 150.238 91.0859 151.16 91.0859C152.621 91.0859 153.766 91.4531 154.594 92.1875C155.422 92.9141 155.852 93.918 155.883 95.1992V101.035C155.883 102.199 156.031 103.125 156.328 103.812V104H154.055ZM150.457 102.348C151.137 102.348 151.781 102.172 152.391 101.82C153 101.469 153.441 101.012 153.715 100.449V97.8477H152.016C149.359 97.8477 148.031 98.625 148.031 100.18C148.031 100.859 148.258 101.391 148.711 101.773C149.164 102.156 149.746 102.348 150.457 102.348ZM158.766 97.5547C158.766 95.5781 159.223 94.0078 160.137 92.8438C161.051 91.6719 162.262 91.0859 163.77 91.0859C165.316 91.0859 166.523 91.6328 167.391 92.7266L167.496 91.3203H169.477V103.695C169.477 105.336 168.988 106.629 168.012 107.574C167.043 108.52 165.738 108.992 164.098 108.992C163.184 108.992 162.289 108.797 161.414 108.406C160.539 108.016 159.871 107.48 159.41 106.801L160.535 105.5C161.465 106.648 162.602 107.223 163.945 107.223C165 107.223 165.82 106.926 166.406 106.332C167 105.738 167.297 104.902 167.297 103.824V102.734C166.43 103.734 165.246 104.234 163.746 104.234C162.262 104.234 161.059 103.637 160.137 102.441C159.223 101.246 158.766 99.6172 158.766 97.5547ZM160.945 97.8008C160.945 99.2305 161.238 100.355 161.824 101.176C162.41 101.988 163.23 102.395 164.285 102.395C165.652 102.395 166.656 101.773 167.297 100.531V94.7422C166.633 93.5312 165.637 92.9258 164.309 92.9258C163.254 92.9258 162.43 93.3359 161.836 94.1562C161.242 94.9766 160.945 96.1914 160.945 97.8008ZM178.02 104.234C176.301 104.234 174.902 103.672 173.824 102.547C172.746 101.414 172.207 99.9023 172.207 98.0117V97.6133C172.207 96.3555 172.445 95.2344 172.922 94.25C173.406 93.2578 174.078 92.4844 174.938 91.9297C175.805 91.3672 176.742 91.0859 177.75 91.0859C179.398 91.0859 180.68 91.6289 181.594 92.7148C182.508 93.8008 182.965 95.3555 182.965 97.3789V98.2812H174.375C174.406 99.5312 174.77 100.543 175.465 101.316C176.168 102.082 177.059 102.465 178.137 102.465C178.902 102.465 179.551 102.309 180.082 101.996C180.613 101.684 181.078 101.27 181.477 100.754L182.801 101.785C181.738 103.418 180.145 104.234 178.02 104.234ZM177.75 92.8672C176.875 92.8672 176.141 93.1875 175.547 93.8281C174.953 94.4609 174.586 95.3516 174.445 96.5H180.797V96.3359C180.734 95.2344 180.438 94.3828 179.906 93.7812C179.375 93.1719 178.656 92.8672 177.75 92.8672Z" fill="#888888"/>
</svg>
